<svg width="35" height="35" viewBox="0 0 35 35" fill="none" xmlns="http://www.w3.org/2000/svg">
<path d="M31.6251 24.2084C31.5915 24.0115 31.5507 23.8396 31.5084 23.6864C31.2532 22.775 30.4598 22.0807 29.4871 21.9203L23.1697 20.8689C22.2393 20.7129 21.3074 21.0731 20.7357 21.8051C20.657 21.9058 20.5811 22.0078 20.5111 22.1113C20.4076 22.263 20.202 22.4045 19.9789 22.3068C16.702 20.882 14.1149 18.2949 12.6916 15.018C12.5924 14.7919 12.7309 14.5936 12.8796 14.493C13.0182 14.3997 13.1523 14.2991 13.2821 14.1941C13.9923 13.6195 14.3453 12.7007 14.2024 11.7951L13.2238 5.58991C13.0736 4.63907 12.4218 3.86173 11.5205 3.56423C11.3091 3.49423 11.0641 3.43013 10.7797 3.37909C8.93347 3.0495 7.04488 3.57153 5.59384 4.81695C4.0728 6.12361 3.22987 8.02246 3.28529 10.0233C3.60466 21.8679 13.1305 31.3952 24.9751 31.7146C25.0348 31.716 25.0947 31.7174 25.1545 31.7174C27.0751 31.7174 28.8907 30.8861 30.158 29.419C31.4136 27.9651 31.9488 26.0649 31.6251 24.2084ZM28.4999 27.9899C27.6235 29.0034 26.3488 29.5445 25.0319 29.5299C14.3511 29.2412 5.7586 20.6472 5.46985 9.96491C5.43485 8.6247 5.99778 7.35308 7.01861 6.47662C7.79007 5.81454 8.71027 5.46743 9.66985 5.46743C9.90902 5.46743 10.1512 5.48922 10.3932 5.53152C10.5624 5.56214 10.7067 5.59871 10.8321 5.641C10.9532 5.68037 11.0421 5.79263 11.064 5.93117L12.0426 12.1364C12.0645 12.272 12.012 12.4091 11.9084 12.4922C11.8239 12.5608 11.7378 12.6249 11.6488 12.6847C10.5784 13.4124 10.1818 14.7307 10.6849 15.8901C12.3299 19.6759 15.3209 22.667 19.1053 24.312C20.2603 24.8137 21.5816 24.4186 22.318 23.3438C22.3618 23.2811 22.4069 23.2183 22.4565 23.1542C22.5353 23.0535 22.6724 23.0054 22.811 23.0258L29.1284 24.0772C29.2626 24.1005 29.3749 24.1821 29.4026 24.2769C29.4288 24.3674 29.4507 24.4681 29.4711 24.5833C29.6811 25.7908 29.3268 27.0318 28.4999 27.9899Z" fill="url(#paint0_linear_378_595)"/>
<defs>
<linearGradient id="paint0_linear_378_595" x1="17.5001" y1="3.28247" x2="17.5001" y2="31.7174" gradientUnits="userSpaceOnUse">
<stop stop-color="#F2E6CF"/>
<stop offset="1" stop-color="#BCAA88"/>
</linearGradient>
</defs>
</svg>
